# xmcd CD database file
#
# Track frame offsets:
#	150
#	32089
#	59897
#	89623
#	117329
#	149547
#	177170
#	206282
#	236487
#	264780
#	291286
#
# Disc length: 4190 seconds
#
# Revision: 2
# Processed by: cddbd v1.5.2PL0 Copyright (c) Steve Scherf et al.
# Submitted via: jetAudio 7
#
DISCID=a4105c0b
DTITLE=John C. Maxwell - Today Matters - Disc 1
DYEAR=2004
DGENRE=Audio Book
TTITLE0=Today Matters 101
TTITLE1=Today Matters 102
TTITLE2=Today Matters 103
TTITLE3=Today Matters 104
TTITLE4=Today Matters 105
TTITLE5=Today Matters 106
TTITLE6=Today Matters 107
TTITLE7=Today Matters 108
TTITLE8=Today Matters 109
TTITLE9=Today Matters 110
TTITLE10=Today Matters 111
EXTD=YEAR: 2004
EXTT0=
EXTT1=
EXTT2=
EXTT3=
EXTT4=
EXTT5=
EXTT6=
EXTT7=
EXTT8=
EXTT9=
EXTT10=
PLAYORDER=
